<?xml version="1.0" encoding="UTF-8"?>
<svg width="1px" height="1px" viewBox="0 0 1 1" version="1.1" xmlns="http://www.w3.org/2000/svg" xmlns:xlink="http://www.w3.org/1999/xlink">
    <title>Rectangle</title>
    <g id="Page-1" stroke="none" stroke-width="1" fill="none" fill-rule="evenodd" opacity="0.99">
        <g id="iPhone-11" fill="#000000">
            <path d="M0.256388524,-1.03584032e-17 L0.743611476,1.03584032e-17 C0.832763351,-6.01853058e-18 0.865091976,0.00928256125 0.897684569,0.0267132708 C0.930277162,0.0441439803 0.95585602,0.0697228381 0.973286729,0.102315431 C0.990717439,0.134908024 1,0.167236649 1,0.256388524 L1,0.743611476 C1,0.832763351 0.990717439,0.865091976 0.973286729,0.897684569 C0.95585602,0.930277162 0.930277162,0.95585602 0.897684569,0.973286729 C0.865091976,0.990717439 0.832763351,1 0.743611476,1 L0.256388524,1 C0.167236649,1 0.134908024,0.990717439 0.102315431,0.973286729 C0.0697228381,0.95585602 0.0441439803,0.930277162 0.0267132708,0.897684569 C0.00928256125,0.865091976 4.01235372e-18,0.832763351 -6.90560215e-18,0.743611476 L6.90560215e-18,0.256388524 C-4.01235372e-18,0.167236649 0.00928256125,0.134908024 0.0267132708,0.102315431 C0.0441439803,0.0697228381 0.0697228381,0.0441439803 0.102315431,0.0267132708 C0.134908024,0.00928256125 0.167236649,6.01853058e-18 0.256388524,-1.03584032e-17 Z" id="Rectangle"></path>
        </g>
    </g>
</svg>