<?xml version="1.0" encoding="UTF-8"?>
<svg width="398px" height="880px" viewBox="0 0 398 880" version="1.1" xmlns="http://www.w3.org/2000/svg" xmlns:xlink="http://www.w3.org/1999/xlink">
    <title>Rectangle</title>
    <g id="Page-1" stroke="none" stroke-width="1" fill="none" fill-rule="evenodd">
        <g id="iPhone-11" transform="translate(-8.000000, -8.000000)" fill="#000000">
            <path d="M132.348432,8 L281.651568,8 C324.890227,8 340.569609,12.5020421 356.377017,20.9559361 C372.184424,29.4098301 384.59017,41.815576 393.044064,57.6229834 C401.497958,73.4303908 406,89.1097733 406,132.348432 L406,763.651568 C406,806.890227 401.497958,822.569609 393.044064,838.377017 C384.59017,854.184424 372.184424,866.59017 356.377017,875.044064 C340.569609,883.497958 324.890227,888 281.651568,888 L132.348432,888 C89.1097733,888 73.4303908,883.497958 57.6229834,875.044064 C41.815576,866.59017 29.4098301,854.184424 20.9559361,838.377017 C12.5020421,822.569609 8,806.890227 8,763.651568 L8,132.348432 C8,89.1097733 12.5020421,73.4303908 20.9559361,57.6229834 C29.4098301,41.815576 41.815576,29.4098301 57.6229834,20.9559361 C73.4303908,12.5020421 89.1097733,8 132.348432,8 Z" id="Rectangle"></path>
        </g>
    </g>
</svg>